<svg width="583" height="438" viewBox="0 0 583 438" fill="none" xmlns="http://www.w3.org/2000/svg">
<g clip-path="url(#clip0_1_10)">
<path d="M533.579 253.817L508.321 236.193C506.798 235.128 504.702 236.225 504.702 238.078V248.78H417.026C401.815 248.78 389.436 261.164 389.436 276.382V339.775C389.436 347.357 383.263 353.533 375.684 353.533H368.563C353.353 353.533 340.974 365.918 340.974 381.135V428.735H354.811V381.135C354.811 373.553 360.985 367.376 368.563 367.376H375.684C390.895 367.376 403.274 354.992 403.274 339.775V276.382C403.274 268.8 409.447 262.623 417.026 262.623H504.702V273.325C504.702 275.189 506.798 276.275 508.321 275.21L533.579 257.586C534.888 256.671 534.888 254.722 533.579 253.806V253.817Z" fill="white"/>
<path d="M533.579 253.817L508.321 236.193C506.798 235.128 504.702 236.225 504.702 238.078V248.78H417.026C401.815 248.78 389.436 261.164 389.436 276.382V339.775C389.436 347.357 383.263 353.533 375.684 353.533H368.563C353.353 353.533 340.974 365.918 340.974 381.135V428.735H354.811V381.135C354.811 373.553 360.985 367.376 368.563 367.376H375.684C390.895 367.376 403.274 354.992 403.274 339.775V276.382C403.274 268.8 409.447 262.623 417.026 262.623H504.702V273.325C504.702 275.189 506.798 276.275 508.321 275.21L533.579 257.586C534.888 256.671 534.888 254.722 533.579 253.806V253.817Z" fill="url(#paint0_linear_1_10)"/>
<path d="M504.691 262.623V254.466L499.922 262.623H504.691Z" fill="black"/>
<path d="M348.01 256.617L330.394 231.347C329.478 230.038 327.53 230.038 326.615 231.347L308.999 256.617C307.934 258.14 309.031 260.238 310.883 260.238H321.58V320.074C321.58 326.985 315.96 332.608 309.052 332.608H298.781C284.241 332.608 272.415 344.439 272.415 358.985V428.735H286.252V358.985C286.252 352.074 291.873 346.451 298.781 346.451H309.052C323.592 346.451 335.418 334.62 335.418 320.074V260.238H346.115C347.978 260.238 349.063 258.14 347.999 256.617H348.01Z" fill="url(#paint1_linear_1_10)"/>
<path d="M321.58 260.238H329.744L321.58 265.009V260.238Z" fill="black"/>
<path d="M161.599 129.949H215.416C220.336 129.949 224.325 125.958 224.325 121.035V102.421C224.325 97.4985 220.336 93.508 215.416 93.508H161.599C156.678 93.508 152.69 97.4985 152.69 102.421V121.035C152.69 125.958 156.678 129.949 161.599 129.949Z" fill="white" stroke="url(#paint2_linear_1_10)" stroke-width="0.5" stroke-miterlimit="10"/>
<path d="M209.232 126.956C209.232 126.956 207.88 148.275 223.495 148.275C223.495 148.275 196.597 155.676 196.597 126.956" fill="white"/>
<path d="M209.232 126.956C209.232 126.956 207.88 148.275 223.495 148.275C223.495 148.275 196.597 155.676 196.597 126.956" stroke="url(#paint3_linear_1_10)" stroke-width="0.5" stroke-linecap="round" stroke-linejoin="round"/>
<path d="M219.61 110.919C219.61 110.919 214.65 104.199 210.051 104.775C204.112 105.509 211.903 119.811 204.101 119.779C199.216 119.758 195.373 108.8 190.881 109.151C186.251 109.513 190.051 116.446 184.42 116.233C178.8 116.02 174.213 104.838 169.838 104.753C165.463 104.668 165.772 114.667 159.013 113.102" stroke="url(#paint4_linear_1_10)" stroke-width="2" stroke-miterlimit="10" stroke-linecap="round"/>
<path d="M491.152 282.025C485.095 275.966 475.281 275.966 469.236 282.025C463.19 288.085 463.19 297.892 469.236 303.941C474.547 309.255 482.775 309.894 488.789 305.868L501.093 318.179C502.275 319.361 504.191 319.361 505.372 318.179C506.554 316.997 506.554 315.08 505.372 313.898L493.057 301.577C497.091 295.55 496.453 287.329 491.141 282.015L491.152 282.025ZM488.076 300.874C483.722 305.229 476.676 305.219 472.322 300.874C467.969 296.529 467.969 289.469 472.322 285.114C476.676 280.758 483.733 280.758 488.086 285.114C492.44 289.469 492.44 296.529 488.086 300.885L488.076 300.874Z" fill="black"/>
<path d="M162.866 356.642L143.43 360.433L159.14 386.491L175.383 381.784L162.866 356.642Z" fill="url(#paint5_linear_1_10)"/>
<path d="M185.57 383.51C187.283 385.991 195.266 400.356 195.266 400.356L190.487 403.668L180.705 390.868C180.705 390.868 177.927 395.703 178.662 401.442C179.162 405.404 180.514 409.227 179.385 411.356C174.596 414.647 169.156 418.342 165.676 420.834C165.069 421.271 163.685 420.834 163.142 420.44C158.289 416.883 163.196 410.366 164.59 404.19C165.559 399.951 155.5 382.658 155.5 382.658L173.414 373.734C173.414 373.734 175.106 375.747 178.481 378.068C181.855 380.379 183.856 381.05 185.57 383.52V383.51Z" fill="black"/>
<path d="M183.366 382.125C183.366 382.125 177.065 388.504 176.405 396.437C175.852 403.093 178.555 408.311 177.278 410.632C172.414 413.997 164.047 419.79 164.047 419.79" stroke="white" stroke-width="0.5" stroke-linecap="round" stroke-linejoin="round"/>
<path d="M138.384 370.72C146.612 369.57 159.79 363.383 165.463 358.336L142.301 308.403L129.092 235.383C126.41 236.118 123.674 236.704 121.098 237.172H121.088C114.052 238.44 108.272 238.77 108.272 238.77C108.272 238.77 107.016 249.727 105.228 262.794C103.216 277.521 100.757 294.804 102.918 299.692C103.748 301.577 138.384 370.72 138.384 370.72Z" fill="url(#paint6_linear_1_10)"/>
<path d="M129.369 366.045L131.05 396.427L147.613 399.888L148.315 371.806L129.369 366.045Z" fill="url(#paint7_linear_1_10)"/>
<path d="M153.148 409.365C153.148 412.379 151.54 428.735 151.54 428.735H145.729L144.962 412.645C144.962 412.645 139.928 415.041 137.267 420.174C135.425 423.72 134.361 427.628 132.232 428.735C126.42 428.714 119.853 428.661 115.574 428.735C114.829 428.746 113.945 427.596 113.722 426.968C111.753 421.281 119.491 418.715 124.153 414.423C127.357 411.484 128.922 391.539 128.922 391.539L148.73 394.393C148.73 394.393 148.975 397.012 150.433 400.846C151.892 404.669 153.158 406.351 153.158 409.365H153.148Z" fill="black"/>
<path d="M152.126 406.969C152.126 406.969 143.312 408.62 138.256 414.775C134.02 419.929 133.275 425.764 130.901 426.946H114.818" stroke="white" stroke-width="0.5" stroke-linecap="round" stroke-linejoin="round"/>
<path d="M124.143 372.69C132.2 375.981 148.709 376.503 156.288 374.724C156.288 374.724 159.737 262.24 158.853 250.899C157.906 238.738 149.38 229.995 149.38 229.995C146.176 232.359 141.673 234.105 137.001 235.383C134.318 236.118 131.583 236.704 129.007 237.172H128.975L124.504 362.382L124.143 372.712V372.69Z" fill="url(#paint8_linear_1_10)"/>
<path d="M125.068 346.835L128.155 260.153L126.292 257.81" stroke="black" stroke-width="0.5" stroke-linecap="round" stroke-linejoin="round"/>
<path d="M150.583 237.258C150.583 237.258 154.148 245.723 154.712 256.596C155.277 267.479 150.583 371.455 150.583 371.455" stroke="black" stroke-width="0.5" stroke-linecap="round" stroke-linejoin="round"/>
<path d="M140.087 239.771C140.471 243.029 142.663 253.678 154.755 256.958L154.521 254.136C154.521 254.136 144.441 251.516 142.631 239.196C141.822 239.377 140.971 239.611 140.087 239.76V239.771Z" fill="black"/>
<path d="M79.4051 154.824C79.4051 154.824 65.6422 192.426 69.687 197.058C74.083 202.084 97.9471 195.301 97.9471 195.301L96.3825 177.986L86.2918 180.222C86.2918 180.222 87.7288 167.923 89.4106 154.75" fill="url(#paint9_linear_1_10)"/>
<path d="M115.925 172.31L91.0391 178.625C91.0391 178.625 92.6463 191.457 96.9785 199.358L115.574 194.417L115.925 172.31Z" fill="url(#paint10_linear_1_10)"/>
<path d="M115.308 194.481L106.09 196.941L111.912 185.834C111.912 185.834 113.583 190.221 115.308 194.481Z" fill="black"/>
<path d="M100.14 143.984C98.4369 143.696 92.6252 141.843 91.5821 142.45C91.5608 142.461 91.2202 142.695 91.0286 143.025C89.5704 142.493 87.8992 141.843 87.3138 143.121C84.9828 142.163 83.2158 141.609 82.7262 141.843C80.2142 143.004 80.4377 147.732 80.4377 147.732C80.4377 147.732 99.5759 147.402 100.438 146.816C101.3 146.231 101.843 144.271 100.151 143.984H100.14Z" fill="url(#paint11_linear_1_10)"/>
<path d="M87.6758 143.281C87.6758 143.281 91.1564 144.57 91.7738 144.846C92.8488 145.326 92.6359 146.508 91.3906 147.328" stroke="black" stroke-width="0.4" stroke-linecap="round" stroke-linejoin="round"/>
<path d="M91.4009 143.196C91.4009 143.196 96.2759 145.059 96.8932 145.336C97.9683 145.815 97.7554 146.997 96.5101 147.817" stroke="black" stroke-width="0.4" stroke-linecap="round" stroke-linejoin="round"/>
<path d="M99.2672 147.956L75.3711 145.837C75.2221 145.815 75.0624 145.794 74.9134 145.794C72.6143 145.794 70.7622 148.627 70.7622 152.109C70.7622 155.591 72.6249 158.434 74.9134 158.434C75.0731 158.434 75.2221 158.424 75.3711 158.392L99.2672 156.273C100.779 156.273 102.003 154.409 102.003 152.12C102.003 149.83 100.779 147.966 99.2672 147.966V147.956Z" fill="url(#paint12_linear_1_10)"/>
<path d="M78.3836 152.109C78.3836 155.037 76.8296 157.401 74.903 157.401C72.9764 157.401 71.4224 155.027 71.4224 152.109C71.4224 149.191 72.9764 146.816 74.903 146.816C76.8296 146.816 78.3836 149.191 78.3836 152.109Z" fill="white"/>
<path d="M112.093 147.956L88.1973 145.837C88.0483 145.815 87.8886 145.794 87.7396 145.794C85.4405 145.794 83.5884 148.627 83.5884 152.109C83.5884 155.591 85.4511 158.434 87.7396 158.434C87.8993 158.434 88.0483 158.424 88.1973 158.392L112.093 156.273C113.605 156.273 114.829 154.409 114.829 152.12C114.829 149.83 113.605 147.966 112.093 147.966V147.956Z" fill="url(#paint13_linear_1_10)"/>
<path d="M87.7394 157.401C89.6617 157.401 91.22 155.032 91.22 152.109C91.22 149.186 89.6617 146.816 87.7394 146.816C85.8171 146.816 84.2588 149.186 84.2588 152.109C84.2588 155.032 85.8171 157.401 87.7394 157.401Z" fill="white"/>
<path d="M106.026 147.328C107.761 147.328 109.166 149.468 109.166 152.109C109.166 154.75 107.761 156.89 106.026 156.89" stroke="black" stroke-width="0.4" stroke-linecap="round" stroke-linejoin="round"/>
<path d="M138.831 175.313L147.091 209.964C147.091 209.964 168.571 200.785 147.506 157.125L141.237 156.773C140.822 159.542 136.34 166.911 138.821 175.313H138.831Z" fill="black"/>
<path d="M118.767 138.212C118.767 138.212 114.648 144.186 118.703 150.82C118.703 150.82 120.64 154.303 121.705 160.277C115.244 173.939 118.33 186.185 118.33 186.185C118.33 186.185 127.74 179.04 131.146 177.677C134.552 176.314 132.966 157.295 132.966 157.295C132.966 157.295 131.284 146.625 130.965 145.57C130.656 144.516 124.472 136.253 124.472 136.253L118.767 138.223V138.212Z" fill="black"/>
<path d="M156.692 239.174C148.986 245.34 115.648 245.287 107.42 240.005C109.304 229.633 112.711 213.297 113.232 209.443C111.306 205.79 108.964 202.531 108.698 198.975C108.41 195.727 115.297 175.718 115.946 172.31L123.802 171.266C131.082 171.043 148.422 173.215 148.422 173.215L157.182 175.909C157.182 175.909 154.872 198.602 153.009 214.426C154.904 226.076 155.032 232.05 156.713 239.174H156.692Z" fill="url(#paint14_linear_1_10)"/>
<path d="M141.184 171.021C141.141 168.476 140.917 161.203 141.407 155.367C143.174 152.567 146.069 146.987 145.835 140.874C145.516 132.153 124.11 123.25 119.895 135.092C119.895 135.092 116.958 146.22 118.139 155.123C118.778 160.042 120.662 164.27 125.005 165.58C126.048 165.889 127.495 165.729 129.102 165.218C128.922 167.23 128.73 169.19 128.581 170.51L123.77 171.277C123.429 173.279 122.088 179.37 127.336 180.84C133.169 182.48 145.388 177.038 148.39 173.226C148.39 173.226 141.62 171.192 141.173 171.032L141.184 171.021Z" fill="url(#paint15_linear_1_10)"/>
<path d="M147.612 147.221C149.582 143.281 150.178 138.169 143.983 135.518C143.983 135.518 142.258 127.702 132.86 127.904C119.437 128.191 111.231 137.041 117.064 146.497C117.064 146.497 130.401 149.745 134.201 142.301C134.201 142.301 132.668 150.629 141.609 150.458C141.609 150.458 141.386 153.834 141.29 156.773L147.506 157.125C146.101 153.983 146.037 150.352 147.602 147.221H147.612Z" fill="black"/>
<path d="M136.798 149.596C136.798 149.596 139.215 144.719 142.45 146.55C145.558 148.307 143.195 155.41 139.725 155.506" fill="url(#paint16_linear_1_10)"/>
<path d="M145.356 192.617L146.74 211.125C146.74 211.125 148.507 211.604 151.498 211.125L145.356 192.617Z" fill="black"/>
<path d="M165.154 199.614C165.154 199.614 166.559 211.019 166.985 214C167.794 219.623 151.349 252.73 151.349 252.73C151.349 252.73 146.346 250.75 143.546 243.104L150.891 215.15L148.4 202.702L165.154 199.614Z" fill="url(#paint17_linear_1_10)"/>
<path d="M157.171 175.909C157.171 175.909 161.535 177.347 162.387 181.127C163.441 185.791 167.794 204.299 167.794 204.299C165.005 206.812 153.233 208.676 148.401 208.537C148.401 208.537 144.43 190.317 144.909 187.399C146.038 180.467 153.393 175.419 157.171 175.909Z" fill="url(#paint18_linear_1_10)"/>
<path style="mix-blend-mode:multiply" d="M129.113 165.207C129.113 165.207 133.775 163.982 138.086 158.424C138.086 158.424 136.713 165.665 128.688 169.669L129.124 165.207H129.113Z" fill="url(#paint19_linear_1_10)"/>
<path d="M189.849 399.004L197.395 382.274L214.884 390.506L205.847 406.138L189.849 399.004Z" fill="url(#paint20_linear_1_10)"/>
<path d="M270.169 408.779V387.109L289.893 392.785L289.073 409.195L270.169 408.779Z" fill="url(#paint21_linear_1_10)"/>
<path d="M283.155 238.29L303.922 318.189L302.655 399.557C296.407 401.591 278.706 402.198 269.137 399.206L270.531 320.702L259.951 286.466L258.45 287.691L254.001 328.423L222.324 399.824C214.66 398.109 202.856 394.521 193.958 388.461L221.462 323.066C221.462 323.066 224.474 304.889 226.454 285.934C226.433 280.002 226.23 274.603 227.231 267.777C229.072 255.254 232.191 249.663 232.191 249.663L283.134 238.301L283.155 238.29Z" fill="url(#paint22_linear_1_10)"/>
<path d="M288.605 182.916L296.343 186.824L308.371 159.925L316.12 162.598C316.12 162.598 308.648 202.67 303.283 204.565C298.238 206.354 281.165 200.082 281.165 200.082L288.605 182.916Z" fill="url(#paint23_linear_1_10)"/>
<path d="M230.765 182.022L224.283 195.684C224.283 211.189 228.072 229.218 231.34 251.538C231.34 251.538 264.986 259.514 284.518 243.317L276.311 199.88L281.867 203.043L292.054 184.183C286.285 180.488 272.948 172.15 266.221 173.747L230.754 182.032L230.765 182.022Z" fill="url(#paint24_linear_1_10)"/>
<path d="M242.239 162.012C235.331 151.214 238.642 137.243 251.425 136.274C261.825 135.486 264.432 142.227 265.88 148.222C265.88 148.222 268.115 157.678 266.465 164.483C265.582 168.146 262.112 171.841 255.14 169.499L257.62 181.702C254.086 183.821 242.878 183.161 240.675 179.807L243.016 163.077C242.75 162.726 242.474 162.396 242.239 162.023V162.012Z" fill="url(#paint25_linear_1_10)"/>
<path d="M253.586 188.336C253.586 188.336 253.341 209.634 241.09 239.025L247.019 249.014L255.832 241.773C255.832 241.773 264.73 217.578 257.439 187.666" fill="white"/>
<path d="M253.096 179.626L249.818 185.759C250.382 186.707 252.021 187.996 253.586 188.347L257.428 187.687C257.95 187.059 258.386 185.642 258.397 184.844L255.353 179.306L253.096 179.626Z" fill="white"/>
<path d="M239.003 181.319L241.09 176.889C243.069 177.89 249.818 179.594 253.096 179.615L249.818 187.399C249.818 187.399 242.324 185.546 239.003 181.319Z" fill="url(#paint26_linear_1_10)"/>
<path d="M256.204 174.716C256.204 174.716 256.428 177.581 255.353 179.296L258.556 186.697C258.556 186.697 260.568 182.022 258.759 177.57L256.204 174.716Z" fill="url(#paint27_linear_1_10)"/>
<path d="M258.184 147.296C252.606 146.486 250.18 143.473 250.18 143.473C250.18 143.473 252.66 146.635 251.84 150.682C251.414 152.758 250.329 153.653 250.329 153.653C250.329 153.653 247.455 149.745 244.996 151.374C241.313 153.813 245.688 160.202 245.688 160.202L242.324 168.029C242.324 168.029 221.536 152.46 236.214 141.449C236.214 141.449 234.778 135.348 241.036 131.727C247.295 128.106 255.331 132.11 260.132 133.697C266.199 135.71 270.595 132.749 271.478 136.551C272.032 138.947 271 149.138 258.195 147.285L258.184 147.296Z" fill="black"/>
<path style="mix-blend-mode:multiply" d="M255.14 169.499C255.14 169.499 250.042 166.975 248.36 164.43C248.36 164.43 248.115 169.829 255.821 172.853L255.14 169.499Z" fill="url(#paint28_linear_1_10)"/>
<path d="M258.45 287.68L259.908 276.073L267.902 270.897L261.335 276.232L259.94 286.466L258.45 287.68Z" fill="black"/>
<path d="M249.318 256.074C249.318 256.074 248.232 271.845 231.766 271.323" stroke="black" stroke-width="2" stroke-miterlimit="10"/>
<path d="M227.316 207.27L225.688 210.113C225.688 210.113 231.531 218.462 234.182 221.827C234.182 221.827 238.908 219.112 241.558 216.556C243.453 214.724 227.327 207.26 227.327 207.26L227.316 207.27Z" fill="black"/>
<path d="M397.154 96.2767C411.076 57.93 390.299 15.4302 350.895 3.19463C315.631 -7.76309 277.354 10.3081 263.357 44.4804C249.882 77.3855 262.548 113.965 291 132.174C291.99 132.802 292.426 134.027 292.022 135.124C291.532 136.455 291.436 137.839 291.671 139.139C292.352 142.961 291.766 146.902 290.447 150.554L241.697 284.805C239.802 290.012 242.495 295.763 247.689 297.647C252.894 299.543 258.642 296.849 260.526 291.652L309.276 157.401C310.607 153.749 312.682 150.352 315.663 147.86C316.674 147.008 317.483 145.89 317.972 144.559C318.377 143.451 319.484 142.802 320.655 142.951C353.215 147.136 385.477 128.436 397.154 96.2767ZM311.16 122.846C282.964 112.601 268.413 81.4215 278.653 53.2125C288.893 25.0036 320.059 10.4465 348.255 20.6908C376.451 30.935 391.002 62.115 380.762 90.3239C370.522 118.533 339.356 133.09 311.16 122.846Z" fill="url(#paint29_linear_1_10)"/>
<path d="M329.713 123.154C358.077 123.154 381.071 100.15 381.071 71.7735C381.071 43.3966 358.077 20.3926 329.713 20.3926C301.349 20.3926 278.355 43.3966 278.355 71.7735C278.355 100.15 301.349 123.154 329.713 123.154Z" stroke="black" stroke-width="0.75" stroke-linecap="round" stroke-linejoin="round"/>
<path d="M299.771 193.203C298.951 191.797 297.291 190.424 297.291 190.424L296.301 193.139C295.758 193.107 294.438 192.852 293.714 192.415C293.714 192.415 296.109 189.923 296.642 189.029C297.983 186.814 296.791 184.79 296.045 184.822C295.3 184.854 289.542 190.083 289.542 190.083C288.563 190.956 287.743 192.266 287.136 193.15C285.923 194.886 284.603 195.524 284.603 195.524C278.738 198.719 255.385 210.518 255.385 210.518L245.635 200.923L233.671 213.095C233.671 213.095 248.977 226.491 257.471 227.109C266.614 222.935 281.314 210.827 287.658 205.534C287.658 205.534 294.289 206.738 295.843 205.364C296.322 204.949 296.62 204.171 296.78 203.671C298.015 202.744 298.068 202.318 298.196 201.935C298.398 201.349 298.217 200.114 298.217 200.114C298.217 200.114 299.356 199.092 299.441 198.176C299.494 197.612 299.005 196.281 299.005 196.281C299.005 196.281 299.931 195.482 300.058 195.099C300.229 194.566 300.133 193.853 299.75 193.192L299.771 193.203Z" fill="url(#paint30_linear_1_10)"/>
<path d="M233.745 218.345C236.194 216.758 247.455 208.08 249.818 204.107L230.765 182.022C230.765 182.022 219.77 184.695 218.939 194.928C218.099 205.279 233.745 218.345 233.745 218.345Z" fill="url(#paint31_linear_1_10)"/>
<path d="M320.75 149.308C320.836 148.233 319.888 146.582 319.888 146.582C319.888 146.582 315.152 139.575 314.715 138.872C314.279 138.169 313.076 138.265 312.767 139.65C312.767 139.65 312.757 139.628 312.746 139.618C312.054 138.255 309.989 138.265 310.309 140.576C309.276 139.192 307.552 139.895 307.999 142.631C307.318 142.035 305.849 142.536 306.2 144.995C306.434 146.625 308.18 150.458 309.17 152.546C309.031 152.865 308.914 153.184 308.85 153.483C308.169 156.539 308.371 159.925 308.371 159.925L316.12 162.598C316.12 162.598 318.536 156.805 319.505 153.589C319.505 153.589 320.676 150.373 320.761 149.308H320.75Z" fill="url(#paint32_linear_1_10)"/>
<path d="M312.991 140.065C312.991 140.065 316.865 145.677 317.546 146.827C318.228 147.988 318.323 149.138 318.323 149.138" stroke="black" stroke-width="0.37" stroke-linecap="round" stroke-linejoin="round"/>
<path d="M310.479 141.013C310.479 141.013 314.151 146.284 314.726 147.37C315.3 148.456 315.577 150.022 315.577 150.022" stroke="black" stroke-width="0.37" stroke-linecap="round" stroke-linejoin="round"/>
<path d="M308.371 143.057C308.371 143.057 310.915 146.933 311.564 147.956C312.214 148.978 312.618 150.81 312.618 150.81" stroke="black" stroke-width="0.37" stroke-linecap="round" stroke-linejoin="round"/>
<path d="M189.849 399.004L205.847 406.138L210.754 413.507C210.754 413.507 228.242 412.464 227.114 428.746H202.483L178.428 415.627C178.428 415.627 181.515 407.81 183.218 404.616C185.336 400.622 188.572 399.792 189.838 399.004H189.849Z" fill="url(#paint33_linear_1_10)"/>
<path d="M227.369 428.735H202.483L178.428 415.616C178.364 414.466 178.779 413.039 179.897 412.017L204.24 425.509H227.082C227.689 425.977 227.923 427.745 227.38 428.735H227.369Z" fill="black"/>
<path d="M206.645 407.331C206.645 407.331 209.317 401.272 212.17 402.198C214.767 403.04 212.329 408.865 205.506 409.333C205.506 409.333 209.594 403.849 215.693 405.585C219.791 406.745 217.854 413.018 207.742 408.982" stroke="black" stroke-width="0.5" stroke-linecap="round" stroke-linejoin="round"/>
<path d="M205.506 409.333C205.506 409.333 209.956 412.762 210.328 420.003" stroke="black" stroke-width="0.5" stroke-linecap="round" stroke-linejoin="round"/>
<path d="M205.506 409.333C205.506 409.333 208.263 413.273 205.847 420.003" stroke="black" stroke-width="0.5" stroke-linecap="round" stroke-linejoin="round"/>
<path d="M270.17 408.779L289.084 409.195L296.418 417.011C296.418 417.011 314.417 414.583 314.417 428.735H265.358C265.358 428.735 265.699 416.873 267.019 413.508C267.647 411.9 268.892 409.567 270.159 408.779H270.17Z" fill="url(#paint34_linear_1_10)"/>
<path d="M314.417 428.736H265.358C265.358 428.736 264.464 426.702 265.497 425.509H314.045C314.705 426.169 314.705 427.362 314.417 428.736Z" fill="black"/>
<path d="M290.159 412.23C290.159 412.23 289.244 405.095 292.075 404.062C294.64 403.125 296.301 409.216 291.213 413.795C291.213 413.795 291.053 406.958 296.929 404.573C300.878 402.965 303.209 409.099 292.756 412.144" stroke="black" stroke-width="0.5" stroke-linecap="round" stroke-linejoin="round"/>
<path d="M291.213 413.795C291.213 413.795 296.833 413.763 301.58 419.237" stroke="black" stroke-width="0.5" stroke-linecap="round" stroke-linejoin="round"/>
<path d="M291.213 413.795C291.213 413.795 295.811 415.211 298.046 421.995" stroke="black" stroke-width="0.5" stroke-linecap="round" stroke-linejoin="round"/>
<path d="M402.231 393.903L401.433 406.469C400.187 418.268 386.435 416.255 383.242 404.2L383.763 389.718L402.22 393.903H402.231Z" fill="url(#paint35_linear_1_10)"/>
<path d="M381.603 403.838C382.465 403.519 383.433 403.721 384.189 404.232C385.264 404.956 387.137 406.394 389.202 408.684C391.725 411.484 397.154 411.495 398.825 410.228C400.496 408.96 401.422 406.469 401.422 406.469C401.422 406.469 403.902 408.332 405.115 411.41C406.329 414.487 405.637 420.152 405.637 420.152C405.637 420.152 406.776 422.442 406.904 424.199C407.074 426.371 404.966 428.671 402.848 428.703C398.612 428.767 376.089 428.682 371.065 428.703C361.602 428.735 357.142 427.095 355.929 425.477C354.715 423.858 354.62 417.969 356.003 417.043C357.387 416.116 362.656 414.839 367.744 413.156C372.544 411.569 377.685 409.759 379.133 407.8C380.283 406.224 379.963 404.435 381.592 403.838H381.603Z" fill="url(#paint36_linear_1_10)"/>
<path d="M405.36 412.112C404.647 411.111 403.678 411.026 402.22 412.123C400.762 413.22 397.026 416.734 392.204 415.648C387.382 414.562 383.369 407.214 381.943 406.373C380.655 405.617 379.782 406.767 379.623 406.99C380.251 405.649 380.251 404.328 381.602 403.838C382.465 403.519 383.433 403.71 384.189 404.232C385.264 404.956 387.148 406.383 389.213 408.684C391.725 411.484 397.153 411.495 398.835 410.217C400.506 408.95 401.432 406.469 401.432 406.469C401.432 406.469 403.912 408.332 405.126 411.41C405.211 411.633 405.286 411.868 405.36 412.112Z" fill="black"/>
<path d="M470.013 383.914L474.877 395.532C478.996 406.66 465.84 411.431 457.633 402.039L451.609 388.365L470.013 383.914Z" fill="url(#paint37_linear_1_10)"/>
<path d="M486.021 414.807C482.338 416.702 467 426.158 461.848 428.725H443.775C442.455 428.725 439.57 426.829 439.294 425.711C438.495 422.527 439.059 418.097 439.347 417.607C440.177 416.17 447.021 415.723 450.885 413.891C452.631 411.474 454.419 408.588 455.505 406.618C455.835 404.701 454.749 403.242 455.952 401.985C456.59 401.315 457.538 401.059 458.453 401.187C459.741 401.368 462.051 401.815 464.914 402.944C468.416 404.339 473.28 401.932 474.217 400.047C475.154 398.173 474.888 395.532 474.888 395.532C474.888 395.532 477.932 396.107 480.391 398.322C482.839 400.548 484.733 405.926 484.733 405.926C484.733 405.926 486.766 407.48 487.66 408.992C488.778 410.856 487.916 413.848 486.032 414.817L486.021 414.807Z" fill="url(#paint38_linear_1_10)"/>
<path d="M480.188 398.152C477.41 397.502 477.41 400.526 476.857 402.39C475.835 405.787 472.982 407.555 468.437 407.033C463.882 406.5 459.869 404.839 457.974 404.499C456.069 404.158 455.547 406.117 455.547 406.117C455.654 404.435 454.845 403.125 455.941 401.975C456.58 401.304 457.527 401.048 458.442 401.176C459.73 401.346 462.04 401.794 464.903 402.933C468.405 404.328 473.27 401.921 474.206 400.037C475.143 398.162 474.877 395.521 474.877 395.521C474.877 395.521 477.772 396.065 480.188 398.152Z" fill="black"/>
<path d="M450.778 324.429C447.106 302.993 445.616 291.535 443.572 278.277C442.082 264.849 439.921 254.349 435.217 247.587C435.217 247.587 387.084 248.418 387.084 248.226C387.031 248.694 383.327 286.818 381.815 324.366C380.293 361.967 380.964 399.004 380.964 399.004C395.567 401.123 409.628 399.738 409.628 399.738C409.628 399.738 411.289 325.313 411.267 325.079C411.267 325.079 413.215 298.127 413.918 290.215C418.303 309.052 420.666 316.688 423.497 327.731C426.499 339.455 435.962 374.085 443.775 397.981C455.089 396.246 468.437 389.973 471.832 387.077C465.744 369.038 457.207 343.949 450.768 324.44L450.778 324.429Z" fill="url(#paint39_linear_1_10)"/>
<path d="M409.831 273.677L405.456 329.871L403.593 394.691" stroke="black" stroke-width="0.5" stroke-linecap="round" stroke-linejoin="round"/>
<path d="M443.881 392.785C443.881 392.785 457.538 390.24 469.151 383.51" stroke="black" stroke-width="0.5" stroke-miterlimit="10" stroke-linecap="round"/>
<path d="M430.118 249.025C430.118 249.025 436.643 262.176 437.729 273.868C438.814 285.561 445.478 325.26 445.478 325.26L464.265 386.065" stroke="black" stroke-width="0.5" stroke-linecap="round" stroke-linejoin="round"/>
<path d="M384.061 210.987C380.496 209.634 375.163 207.973 368.979 204.225C368.074 206.386 365.211 213.34 364.359 215.246C355.588 205.801 344.678 194.119 344.678 194.119C344.678 194.119 337.366 198.357 338.558 199.528C339.75 200.7 354.002 236.171 366.956 234.947C371.948 234.478 377.526 225.448 384.061 210.987Z" fill="url(#paint40_linear_1_10)"/>
<path d="M367.68 205.747C372.054 208.846 377.174 211.093 380.878 212.478C382.071 212.925 383.103 213.287 383.923 213.553C384.412 212.648 390.458 200.71 390.958 199.784C386.775 190.541 381.581 178.614 381.581 178.614C381.581 178.614 378.068 183.065 373.31 193.352C371.82 196.589 369.596 201.179 367.68 205.758V205.747Z" fill="url(#paint41_linear_1_10)"/>
<path d="M390.81 200.072C389.735 202.148 384.391 212.691 383.923 213.542C383.103 213.276 382.071 212.914 380.879 212.467C380.634 212.371 380.379 212.275 380.123 212.179L384.476 205.055L386.839 197.665C386.839 197.665 388.574 198.804 390.81 200.072Z" fill="black"/>
<path d="M437.665 251.676C426.851 257.948 400.368 258.917 386.094 254.019C386.435 247.97 386.957 226.598 386.978 220.784C384.466 205.694 380.815 181.564 381.581 178.603C382.273 177.741 392.247 174.557 400.985 172.31C404.402 171.437 413.365 171.17 419.368 172.012C426.106 172.959 438.155 183.268 439.358 185.908C438.272 211.466 436.122 238.567 437.655 251.676H437.665Z" fill="url(#paint42_linear_1_10)"/>
<path d="M439.102 191.563C438.74 199.23 438.314 206.94 437.942 214.267C434.717 206.823 431.417 197.122 431.417 197.122L433.993 192.085L439.102 191.563Z" fill="black"/>
<path d="M456.888 198.549L440.22 205.332L446.383 215.683L440.167 243.519L433.141 243.551C433.141 243.551 429.001 243.615 427.681 244.328C426.659 244.893 421.284 249.642 420.773 250.654C420.432 251.314 421.124 252.219 422.295 252.432C421.731 252.997 421.305 253.465 421.188 253.689C420.784 254.477 421.837 255.595 423.391 255.51C423.179 255.755 423.008 255.968 422.944 256.106C422.497 256.99 423.86 258.3 425.733 257.853C425.318 258.854 426.404 259.397 427.851 259.418C429.725 259.45 435.238 256.159 435.238 256.159C435.238 256.159 441.348 257.789 444.147 255.669C446.947 253.54 448.107 248.567 448.107 248.567C448.107 248.567 462.668 224.766 464.691 213.138C465.074 210.912 456.888 198.559 456.888 198.559V198.549Z" fill="url(#paint43_linear_1_10)"/>
<path d="M422.646 252.145C422.444 252.272 426.808 248.471 428.798 247.076C430.012 246.224 432.737 246.256 432.737 246.256" stroke="black" stroke-width="0.37" stroke-linecap="round" stroke-linejoin="round"/>
<path d="M423.742 255.212C423.742 255.212 428.841 250.803 430.129 250.058C431.119 249.493 433.939 249.493 433.939 249.493" stroke="black" stroke-width="0.37" stroke-linecap="round" stroke-linejoin="round"/>
<path d="M426.329 257.384C426.329 257.384 430.31 254.328 431.438 253.614C432.566 252.901 435.025 252.698 435.025 252.698" stroke="black" stroke-width="0.37" stroke-linecap="round" stroke-linejoin="round"/>
<path d="M460.06 202.074C456.356 206.152 446.053 212.36 441.55 213.553C438.261 208.282 432.492 199.347 430.938 196.227L419.378 172.022C419.378 172.022 439.315 174.152 442.359 176.846C445.659 179.753 450.257 185.568 460.071 202.084L460.06 202.074Z" fill="url(#paint44_linear_1_10)"/>
<path d="M379.601 233.349H345.476C344.71 233.349 344.061 232.796 343.933 232.05L335.237 181.564C335.066 180.605 335.812 179.721 336.78 179.721H370.905C371.672 179.721 372.321 180.275 372.449 181.031L381.145 231.518C381.315 232.476 380.57 233.36 379.601 233.36V233.349Z" fill="url(#paint45_linear_1_10)"/>
<path d="M378.207 233.349H344.082C343.315 233.349 342.666 232.796 342.538 232.05L333.842 181.564C333.672 180.605 334.417 179.721 335.386 179.721H369.511C370.277 179.721 370.926 180.275 371.054 181.031L379.75 231.518C379.921 232.476 379.176 233.36 378.207 233.36V233.349Z" fill="black"/>
<path d="M348.765 200.093C349.361 199.827 349.808 199.284 349.532 198.283C349.34 197.59 348.755 196.93 347.935 196.525C348.563 196.27 349.042 195.716 348.755 194.694C348.478 193.682 347.36 192.703 345.891 192.585C344.742 192.49 337.876 191.616 337.78 191.595C336.631 191.19 335.609 190.488 335.119 189.125C335.119 189.125 332.991 191.489 333.012 195.642C333.023 197.409 333.651 201.062 335.354 204.47C335.992 205.758 339.334 206.706 340.803 206.738C342.389 206.77 346.168 206.078 347.073 205.865C348.116 205.609 349.159 205.332 348.744 203.852C348.68 203.639 348.574 203.426 348.446 203.213C349.191 203.011 349.84 202.457 349.521 201.296C349.404 200.87 349.127 200.455 348.755 200.104L348.765 200.093Z" fill="url(#paint46_linear_1_10)"/>
<path d="M347.03 196.653C347.03 196.653 342.336 197.154 339.888 197.154C338.898 197.154 334.757 196.302 334.757 196.302" stroke="black" stroke-width="0.37" stroke-linecap="round" stroke-linejoin="round"/>
<path d="M347.871 200.082C347.871 200.082 341.623 200.86 339.888 200.796C338.153 200.732 335.3 200.082 335.3 200.082" stroke="black" stroke-width="0.37" stroke-linecap="round" stroke-linejoin="round"/>
<path d="M347.871 203.202C347.871 203.202 341.793 204.15 340.09 204.225C338.387 204.289 336.013 203.543 336.013 203.543" stroke="black" stroke-width="0.37" stroke-linecap="round" stroke-linejoin="round"/>
<path d="M418.122 170.414C417.494 167.539 417.313 162.481 417.249 159.84C418.175 159.041 418.867 158.189 419.091 157.369L419.453 142.205L408.181 137.222C406.744 137.616 401.528 135.028 400.485 136.604C399.442 138.18 397.132 148.605 396.568 150.756C396.206 152.12 394.652 160.82 397.643 163.556C399.197 164.983 402.145 165.069 404.849 164.76C404.285 167.198 403.444 170.83 403.348 171C403.05 171.554 400.974 172.321 400.974 172.321C400.974 172.321 400.804 177.336 404.562 178.199C412.821 180.052 419.357 172.022 419.357 172.022C419.357 172.022 418.378 171.65 418.111 170.425L418.122 170.414Z" fill="url(#paint47_linear_1_10)"/>
<path d="M431.193 149.628C430.544 150.693 429.331 151.278 428.298 152.002C427.776 152.695 427.202 153.376 426.574 154.058C426.34 154.729 426.254 155.474 425.924 156.102C425.169 157.561 423.423 158.04 421.763 158.285C420.336 159.318 418.825 160.287 417.303 161.129L416.111 159.329C418.399 155.825 418.835 152.13 416.77 151.257C414.376 150.256 412.843 152.95 412.843 152.95L411.363 152.354C411.512 151.534 411.64 150.735 411.31 149.606C410.842 148.403 409.937 147.562 409.767 146.742C409.681 146.316 409.767 145.89 409.809 145.464C409.83 145.038 409.756 144.559 409.415 144.293C409.128 144.058 408.723 144.037 408.362 144.101C408 144.154 407.638 144.271 407.265 144.271C406.307 144.261 405.562 143.473 404.806 142.876C404.647 142.749 404.476 142.621 404.274 142.578C404.072 142.525 403.87 142.546 403.657 142.567C402.326 142.674 400.964 142.386 399.793 141.737C399.154 141.375 398.526 140.864 398.367 140.15C398.271 139.735 398.324 139.288 398.207 138.883C398.175 138.83 398.143 138.787 398.111 138.734C398.047 138.681 397.973 138.638 397.909 138.585C397.547 138.169 397.324 137.648 397.121 137.137C396.547 135.71 395.961 134.048 396.664 132.664C397.026 131.929 397.696 131.407 398.196 130.758C399.027 129.661 399.431 128.149 400.634 127.478C401.954 126.733 403.572 127.329 405.062 127.563C406.744 127.829 408.5 127.595 410.054 126.903C410.586 126.658 411.108 126.36 411.661 126.168C413.13 125.636 414.844 125.87 416.111 126.775C416.515 127.052 416.866 127.393 417.271 127.648C418.601 128.511 420.304 128.479 421.89 128.543C423.476 128.607 425.233 128.894 426.222 130.13C427.574 131.844 426.85 134.56 428.16 136.306C429.096 137.552 430.959 138.106 431.406 139.607C431.683 140.523 431.31 141.503 431.215 142.461C430.98 144.878 432.449 147.541 431.193 149.628Z" fill="black"/>
<path style="mix-blend-mode:multiply" d="M404.86 164.76C404.86 164.76 409.096 164.206 413.3 161.129C413.3 161.129 410.852 165.835 403.934 168.711L404.86 164.76Z" fill="url(#paint48_linear_1_10)"/>
<path d="M356.749 423.943C356.749 423.943 359.803 425.509 363.135 425.509H389.437C390.831 425.509 392.172 425.019 393.247 424.124C395.163 422.538 398.952 420.142 404.445 420.142" stroke="white" stroke-width="0.5" stroke-linecap="round" stroke-linejoin="round"/>
<path d="M440.315 423.773C440.315 423.773 441.337 425.2 443.477 425.509H459.943C460.837 425.509 461.721 425.275 462.498 424.827L474.547 417.842C476.452 416.734 477.857 414.966 478.581 412.89C479.326 410.771 481.104 407.725 483.775 406.394" stroke="white" stroke-width="0.5" stroke-linecap="round" stroke-linejoin="round"/>
<path d="M406.68 271.451L410.426 274.103L413.79 289.65" stroke="black" stroke-width="0.5" stroke-linecap="round" stroke-linejoin="round"/>
<path d="M382.294 393.967C382.294 393.967 398.399 395.532 408.522 394.308" stroke="black" stroke-width="0.5" stroke-miterlimit="10" stroke-linecap="round"/>
<path d="M408.415 182.373L410.107 180.126L407.915 174.898H405.935L403.253 179.146L404.115 181.255L398.133 234.979L404.913 246.267L412.971 234.979L408.415 182.373Z" fill="white"/>
<path d="M420.688 173.62L417.92 169.275C417.92 169.275 414.525 172.853 407.415 174.898L409.703 181.255C409.703 181.255 417.718 178.06 420.688 173.63V173.62Z" fill="url(#paint49_linear_1_10)"/>
<path d="M403.7 169.701C403.7 169.701 404.04 172.171 405.924 174.898L403.242 180.126C403.242 180.126 400.517 176.122 400.038 172.821L403.689 169.69L403.7 169.701Z" fill="url(#paint50_linear_1_10)"/>
<g opacity="0.2">
<path d="M15.9023 300.533C24.6849 300.533 31.8046 293.41 31.8046 284.624C31.8046 275.837 24.6849 268.714 15.9023 268.714C7.11971 268.714 0 275.837 0 284.624C0 293.41 7.11971 300.533 15.9023 300.533Z" fill="url(#paint51_linear_1_10)"/>
<path d="M99.6931 359.731C103.103 359.731 105.867 356.965 105.867 353.554C105.867 350.143 103.103 347.378 99.6931 347.378C96.2835 347.378 93.5195 350.143 93.5195 353.554C93.5195 356.965 96.2835 359.731 99.6931 359.731Z" fill="url(#paint52_linear_1_10)"/>
<path d="M510.812 129.64C518.771 129.64 525.224 123.184 525.224 115.221C525.224 107.258 518.771 100.803 510.812 100.803C502.852 100.803 496.399 107.258 496.399 115.221C496.399 123.184 502.852 129.64 510.812 129.64Z" fill="url(#paint53_linear_1_10)"/>
<path d="M453.929 42.585C457.315 42.585 460.06 39.8388 460.06 36.4512C460.06 33.0636 457.315 30.3174 453.929 30.3174C450.543 30.3174 447.798 33.0636 447.798 36.4512C447.798 39.8388 450.543 42.585 453.929 42.585Z" fill="url(#paint54_linear_1_10)"/>
<path d="M255.352 63.1374C261.507 63.1374 266.497 58.1456 266.497 51.988C266.497 45.8303 261.507 40.8386 255.352 40.8386C249.198 40.8386 244.208 45.8303 244.208 51.988C244.208 58.1456 249.198 63.1374 255.352 63.1374Z" fill="url(#paint55_linear_1_10)"/>
<path d="M492.227 209.964C492.227 212.222 490.396 214.054 488.14 214.054C485.883 214.054 484.052 212.222 484.052 209.964C484.052 207.707 485.883 205.875 488.14 205.875C490.396 205.875 492.227 207.707 492.227 209.964Z" fill="url(#paint56_linear_1_10)"/>
<path d="M62.3535 119.31C64.6108 119.31 66.4408 117.48 66.4408 115.221C66.4408 112.963 64.6108 111.132 62.3535 111.132C60.0961 111.132 58.2661 112.963 58.2661 115.221C58.2661 117.48 60.0961 119.31 62.3535 119.31Z" fill="url(#paint57_linear_1_10)"/>
<path d="M518.158 371.011C521.65 367.518 521.65 361.854 518.158 358.361C514.667 354.868 509.005 354.868 505.514 358.361C502.022 361.854 502.022 367.518 505.514 371.011C509.005 374.504 514.667 374.504 518.158 371.011Z" fill="url(#paint58_linear_1_10)"/>
</g>
<path d="M50.0701 263.124C50.0701 264.114 49.2718 264.913 48.2819 264.913C47.292 264.913 46.4937 264.114 46.4937 263.124C46.4937 262.133 47.292 261.335 48.2819 261.335C49.2718 261.335 50.0701 262.133 50.0701 263.124Z" fill="black"/>
<path d="M58.3406 263.124C58.3406 264.114 57.5423 264.913 56.5524 264.913C55.5625 264.913 54.7642 264.114 54.7642 263.124C54.7642 262.133 55.5625 261.335 56.5524 261.335C57.5423 261.335 58.3406 262.133 58.3406 263.124Z" fill="black"/>
<path d="M66.6218 263.124C66.6218 264.114 65.8235 264.913 64.8336 264.913C63.8437 264.913 63.0454 264.114 63.0454 263.124C63.0454 262.133 63.8437 261.335 64.8336 261.335C65.8235 261.335 66.6218 262.133 66.6218 263.124Z" fill="black"/>
<path d="M74.9026 263.124C74.9026 264.114 74.1043 264.913 73.1144 264.913C72.1245 264.913 71.3262 264.114 71.3262 263.124C71.3262 262.133 72.1245 261.335 73.1144 261.335C74.1043 261.335 74.9026 262.133 74.9026 263.124Z" fill="black"/>
<path d="M83.1838 263.124C83.1838 264.114 82.3855 264.913 81.3956 264.913C80.4057 264.913 79.6074 264.114 79.6074 263.124C79.6074 262.133 80.4057 261.335 81.3956 261.335C82.3855 261.335 83.1838 262.133 83.1838 263.124Z" fill="black"/>
<path d="M489.438 173.545C491.755 173.545 493.632 171.667 493.632 169.349C493.632 167.032 491.755 165.154 489.438 165.154C487.122 165.154 485.245 167.032 485.245 169.349C485.245 171.667 487.122 173.545 489.438 173.545Z" fill="black"/>
<path d="M508.896 173.545C511.212 173.545 513.09 171.667 513.09 169.349C513.09 167.032 511.212 165.154 508.896 165.154C506.58 165.154 504.702 167.032 504.702 169.349C504.702 171.667 506.58 173.545 508.896 173.545Z" fill="black"/>
<path d="M528.353 173.545C530.67 173.545 532.547 171.667 532.547 169.349C532.547 167.032 530.67 165.154 528.353 165.154C526.037 165.154 524.16 167.032 524.16 169.349C524.16 171.667 526.037 173.545 528.353 173.545Z" fill="black"/>
<path d="M547.811 173.545C550.127 173.545 552.005 171.667 552.005 169.349C552.005 167.032 550.127 165.154 547.811 165.154C545.495 165.154 543.617 167.032 543.617 169.349C543.617 171.667 545.495 173.545 547.811 173.545Z" fill="black"/>
<path d="M138.523 75.4475C140.551 75.4475 142.195 73.8026 142.195 71.7736C142.195 69.7446 140.551 68.0997 138.523 68.0997C136.495 68.0997 134.851 69.7446 134.851 71.7736C134.851 73.8026 136.495 75.4475 138.523 75.4475Z" fill="black"/>
<path d="M155.543 75.4475C157.571 75.4475 159.215 73.8026 159.215 71.7736C159.215 69.7446 157.571 68.0997 155.543 68.0997C153.515 68.0997 151.871 69.7446 151.871 71.7736C151.871 73.8026 153.515 75.4475 155.543 75.4475Z" fill="black"/>
<path d="M176.224 71.7736C176.224 73.7969 174.585 75.4475 172.552 75.4475C170.519 75.4475 168.88 73.8075 168.88 71.7736C168.88 69.7397 170.519 68.0997 172.552 68.0997C174.585 68.0997 176.224 69.7397 176.224 71.7736Z" fill="black"/>
<path d="M193.234 71.7736C193.234 73.7969 191.594 75.4475 189.561 75.4475C187.528 75.4475 185.889 73.8075 185.889 71.7736C185.889 69.7397 187.528 68.0997 189.561 68.0997C191.594 68.0997 193.234 69.7397 193.234 71.7736Z" fill="black"/>
<path d="M488.15 425.509C488.15 425.509 487.395 411.846 497.783 408.716C511.695 404.531 515.857 421.153 509.822 422.836C497.475 426.276 498.922 376.758 526.863 384.511C539.838 388.11 534.601 400.803 529.45 399.1C520.689 396.203 527.065 367.451 553.218 380.56" stroke="black" stroke-width="0.5" stroke-linecap="round" stroke-linejoin="round"/>
<path d="M31.6982 51.9879H81.8534C81.8534 51.9879 46.1423 23.566 59.373 11.767C74.9027 -2.09783 105.089 35.6206 105.089 35.6206C105.089 35.6206 91.4011 15.2918 103.482 7.86954C117.266 -0.596338 147.421 34.8645 147.421 34.8645C147.421 34.8645 138.842 18.2629 149.646 13.7797C161.748 8.76405 176.214 36.0146 176.214 36.0146C176.214 36.0146 190.828 20.382 199.652 28.4965C207.401 35.6099 189.551 51.9773 189.551 51.9773H218.896" stroke="black" stroke-width="0.5" stroke-linecap="round" stroke-linejoin="round"/>
<path d="M435.047 103.561H459.081C459.081 103.561 468.693 76.9383 481.093 75.6392C492.919 74.4039 487.544 91.3356 487.544 91.3356C487.544 91.3356 508.821 56.5563 527.566 62.9244C538.369 66.5982 526.342 89.4295 526.342 89.4295C526.342 89.4295 542.052 71.6671 552.324 77.8115C562.212 83.7217 546.044 103.561 546.044 103.561H582.734" stroke="black" stroke-width="0.5" stroke-linecap="round" stroke-linejoin="round"/>
<path d="M49.5165 343.598C49.5165 343.598 35.9239 319.084 33.0713 302.322C33.0713 302.322 43.6728 313.152 58.3404 339.657" fill="black"/>
<path d="M47.6111 354.342C47.6111 354.342 26.2057 334.354 23.1509 310.298C23.1509 310.298 37.6375 319.478 51.592 339.253C51.592 339.253 40.0005 307.711 41.5439 281.142C41.5439 281.142 52.9119 294.804 61.7358 325.59C61.7358 325.59 65.2803 302.322 69.8999 290.31C69.8999 290.31 70.9856 308.254 67.1856 334.354C67.1856 334.354 74.4662 313.365 88.7932 296.221C88.7932 296.221 91.4436 324.153 75.9564 354.332" fill="url(#paint59_linear_1_10)"/>
<path d="M83.4605 350.541H40.0005V428.746H83.4605V350.541Z" fill="black"/>
<mask id="mask0_1_10" style="mask-type:luminance" maskUnits="userSpaceOnUse" x="40" y="350" width="44" height="79">
<path d="M83.4605 350.541H40.0005V428.746H83.4605V350.541Z" fill="white"/>
</mask>
<g mask="url(#mask0_1_10)">
<path d="M33.0714 354.342C33.0714 354.342 49.9742 354.342 49.921 366.045C49.8571 378.462 32.3901 378.27 32.3901 378.27" stroke="white" stroke-miterlimit="10"/>
<path d="M88.9529 366.439C88.9529 366.439 79.0326 367.526 78.3194 372.286C77.6914 376.503 82.3642 378.366 79.2348 382.445C76.1055 386.523 71.8052 386.864 71.1453 390.74C70.4854 394.67 76.2758 397.949 76.2758 401.921C76.2758 407.704 67.1112 411.516 70.6344 418.672C74.7111 426.936 88.2291 425.434 88.2291 425.434" stroke="white" stroke-miterlimit="10"/>
</g>
<path d="M61.725 342.756C61.725 342.756 60.3094 347.474 59.9688 351.084H64.7267L61.725 342.756Z" fill="black"/>
<path d="M61.7251 342.756C61.7251 342.756 62.3531 359.081 74.7854 375.416C74.7854 375.416 77.4678 356.227 70.5704 339.53L61.7251 342.767V342.756Z" fill="url(#paint60_linear_1_10)"/>
<path d="M221.781 310.82H205.783C197.235 310.82 190.274 303.856 190.274 295.305V240.782C190.274 224.596 177.107 211.423 160.928 211.423H60.6392V200.721C60.6392 198.858 58.5423 197.771 57.0202 198.836L31.7617 216.46C30.4525 217.376 30.4525 219.325 31.7617 220.241L57.0202 237.865C58.5423 238.929 60.6392 237.833 60.6392 235.98V225.278H160.939C169.486 225.278 176.447 232.242 176.447 240.793V295.315C176.447 311.502 189.614 324.674 205.793 324.674H221.791C230.339 324.674 237.3 331.639 237.3 340.19V428.746H251.137V340.19C251.137 324.004 237.97 310.831 221.791 310.831L221.781 310.82Z" fill="white"/>
<path d="M221.781 310.82H205.783C197.235 310.82 190.274 303.856 190.274 295.305V240.782C190.274 224.596 177.107 211.423 160.928 211.423H60.6392V200.721C60.6392 198.858 58.5423 197.771 57.0202 198.836L31.7617 216.46C30.4525 217.376 30.4525 219.325 31.7617 220.241L57.0202 237.865C58.5423 238.929 60.6392 237.833 60.6392 235.98V225.278H160.939C169.486 225.278 176.447 232.242 176.447 240.793V295.315C176.447 311.502 189.614 324.674 205.793 324.674H221.791C230.339 324.674 237.3 331.639 237.3 340.19V428.746H251.137V340.19C251.137 324.004 237.97 310.831 221.791 310.831L221.781 310.82Z" fill="url(#paint61_linear_1_10)"/>
<path d="M58.3296 198.421C59.5217 198.421 60.6394 199.369 60.6394 200.732V211.434H160.939C177.118 211.434 190.285 224.607 190.285 240.793V295.315C190.285 303.866 197.246 310.831 205.793 310.831H221.791C237.97 310.831 251.137 324.003 251.137 340.19V428.746H237.3V340.19C237.3 331.639 230.339 324.674 221.791 324.674H205.793C189.614 324.674 176.447 311.502 176.447 295.315V240.793C176.447 232.242 169.486 225.278 160.939 225.278H60.6394V235.98C60.6394 237.343 59.5217 238.29 58.3296 238.29C57.8825 238.29 57.4355 238.163 57.0204 237.875L31.7619 220.251C30.4526 219.335 30.4526 217.387 31.7619 216.471L57.0204 198.847C57.4355 198.559 57.8825 198.432 58.3296 198.432M58.3296 197.889C57.7548 197.889 57.2013 198.07 56.7117 198.4L31.4532 216.024C30.6974 216.556 30.2397 217.419 30.2397 218.345C30.2397 219.272 30.6974 220.145 31.4532 220.667L56.7117 238.29C57.1907 238.631 57.7548 238.802 58.3296 238.802C59.8943 238.802 61.1716 237.524 61.1716 235.958V225.789H160.939C169.199 225.789 175.915 232.508 175.915 240.772V295.294C175.915 311.779 189.316 325.186 205.793 325.186H221.791C230.051 325.186 236.768 331.905 236.768 340.169V429.257H251.669V340.169C251.669 323.684 238.269 310.277 221.791 310.277H205.793C197.533 310.277 190.817 303.558 190.817 295.294V240.772C190.817 224.287 177.416 210.88 160.939 210.88H61.1716V200.711C61.1716 199.145 59.8943 197.867 58.3296 197.867V197.889Z" fill="black"/>
<path d="M60.6392 225.267V217.11L65.4077 225.267H60.6392Z" fill="black"/>
<path d="M80.4272 437.468H320.75" stroke="black" stroke-miterlimit="10" stroke-linecap="round"/>
<path d="M355.014 437.468H488.15" stroke="black" stroke-miterlimit="10" stroke-linecap="round"/>
<path d="M17.978 428.746H539.125" stroke="black" stroke-miterlimit="10" stroke-linecap="round"/>
</g>
<defs>
<linearGradient id="paint0_linear_1_10" x1="437.761" y1="218.132" x2="437.761" y2="650.595" gradientUnits="userSpaceOnUse">
<stop stop-color="#8AB9FD" stop-opacity="0.2"/>
<stop offset="1" stop-color="#0056E9"/>
</linearGradient>
<linearGradient id="paint1_linear_1_10" x1="310.425" y1="237.609" x2="310.425" y2="1238.65" gradientUnits="userSpaceOnUse">
<stop stop-color="#5FA3FA"/>
<stop offset="1" stop-color="#3768EE"/>
</linearGradient>
<linearGradient id="paint2_linear_1_10" x1="224.591" y1="111.728" x2="152.424" y2="111.728" gradientUnits="userSpaceOnUse">
<stop stop-color="#7695DB"/>
<stop offset="1" stop-color="#5873EC"/>
</linearGradient>
<linearGradient id="paint3_linear_1_10" x1="223.761" y1="138.052" x2="196.331" y2="138.052" gradientUnits="userSpaceOnUse">
<stop stop-color="#7695DB"/>
<stop offset="1" stop-color="#5873EC"/>
</linearGradient>
<linearGradient id="paint4_linear_1_10" x1="220.674" y1="112.261" x2="157.938" y2="112.261" gradientUnits="userSpaceOnUse">
<stop stop-color="#7695DB"/>
<stop offset="1" stop-color="#5873EC"/>
</linearGradient>
<linearGradient id="paint5_linear_1_10" x1="152.392" y1="356.099" x2="164.088" y2="381.109" gradientUnits="userSpaceOnUse">
<stop stop-color="#FFD2B6"/>
<stop offset="1" stop-color="#FFB793"/>
</linearGradient>
<linearGradient id="paint6_linear_1_10" x1="133.775" y1="224.649" x2="133.775" y2="364.267" gradientUnits="userSpaceOnUse">
<stop stop-color="#5FA3FA"/>
<stop offset="1" stop-color="#3768EE"/>
</linearGradient>
<linearGradient id="paint7_linear_1_10" x1="138.906" y1="365.162" x2="138.362" y2="396.15" gradientUnits="userSpaceOnUse">
<stop stop-color="#FFD2B6"/>
<stop offset="1" stop-color="#FFB793"/>
</linearGradient>
<linearGradient id="paint8_linear_1_10" x1="141.567" y1="224.617" x2="141.567" y2="365.204" gradientUnits="userSpaceOnUse">
<stop stop-color="#5FA3FA"/>
<stop offset="1" stop-color="#3768EE"/>
</linearGradient>
<linearGradient id="paint9_linear_1_10" x1="86.9092" y1="137.786" x2="83.2443" y2="197.739" gradientUnits="userSpaceOnUse">
<stop stop-color="#FFD2B6"/>
<stop offset="1" stop-color="#FFB793"/>
</linearGradient>
<linearGradient id="paint10_linear_1_10" x1="103.961" y1="169.871" x2="101.639" y2="228.483" gradientUnits="userSpaceOnUse">
<stop stop-color="#5FA3FA"/>
<stop offset="1" stop-color="#3768EE"/>
</linearGradient>
<linearGradient id="paint11_linear_1_10" x1="91.3373" y1="138.052" x2="87.6618" y2="198.005" gradientUnits="userSpaceOnUse">
<stop stop-color="#FFD2B6"/>
<stop offset="1" stop-color="#FFB793"/>
</linearGradient>
<linearGradient id="paint12_linear_1_10" x1="86.3771" y1="157.827" x2="86.3771" y2="148.818" gradientUnits="userSpaceOnUse">
<stop stop-color="#BE1E2B"/>
<stop offset="1" stop-color="#D3535C"/>
</linearGradient>
<linearGradient id="paint13_linear_1_10" x1="99.2033" y1="158.051" x2="99.2033" y2="147.455" gradientUnits="userSpaceOnUse">
<stop stop-color="#BE1E2B"/>
<stop offset="1" stop-color="#D3535C"/>
</linearGradient>
<linearGradient id="paint14_linear_1_10" x1="134.584" y1="170.979" x2="132.134" y2="232.7" gradientUnits="userSpaceOnUse">
<stop stop-color="#5FA3FA"/>
<stop offset="1" stop-color="#3768EE"/>
</linearGradient>
<linearGradient id="paint15_linear_1_10" x1="134.744" y1="136.018" x2="131.985" y2="178.944" gradientUnits="userSpaceOnUse">
<stop stop-color="#FFD2B6"/>
<stop offset="1" stop-color="#FFB793"/>
</linearGradient>
<linearGradient id="paint16_linear_1_10" x1="141.194" y1="136.434" x2="138.435" y2="179.359" gradientUnits="userSpaceOnUse">
<stop stop-color="#FFD2B6"/>
<stop offset="1" stop-color="#FFB793"/>
</linearGradient>
<linearGradient id="paint17_linear_1_10" x1="156.734" y1="192.223" x2="152.441" y2="300.469" gradientUnits="userSpaceOnUse">
<stop stop-color="#FFD2B6"/>
<stop offset="1" stop-color="#FFB793"/>
</linearGradient>
<linearGradient id="paint18_linear_1_10" x1="157.299" y1="171.564" x2="154.657" y2="238.12" gradientUnits="userSpaceOnUse">
<stop stop-color="#5FA3FA"/>
<stop offset="1" stop-color="#3768EE"/>
</linearGradient>
<linearGradient id="paint19_linear_1_10" x1="139.874" y1="158.828" x2="129.067" y2="167.598" gradientUnits="userSpaceOnUse">
<stop stop-color="#FFD2B6"/>
<stop offset="1" stop-color="#FFB793"/>
</linearGradient>
<linearGradient id="paint20_linear_1_10" x1="233.788" y1="377.749" x2="188.744" y2="400.776" gradientUnits="userSpaceOnUse">
<stop stop-color="#FFCBCA"/>
<stop offset="1" stop-color="#E994A8"/>
</linearGradient>
<linearGradient id="paint21_linear_1_10" x1="294.662" y1="387.056" x2="270.609" y2="404.786" gradientUnits="userSpaceOnUse">
<stop stop-color="#FFCBCA"/>
<stop offset="1" stop-color="#E994A8"/>
</linearGradient>
<linearGradient id="paint22_linear_1_10" x1="260.579" y1="247.821" x2="247.326" y2="405.594" gradientUnits="userSpaceOnUse">
<stop stop-color="#3F2DD1"/>
<stop offset="1" stop-color="#4B3FFA"/>
</linearGradient>
<linearGradient id="paint23_linear_1_10" x1="307.881" y1="144.378" x2="294.149" y2="200.793" gradientUnits="userSpaceOnUse">
<stop stop-color="#FFCBCA"/>
<stop offset="1" stop-color="#E994A8"/>
</linearGradient>
<linearGradient id="paint24_linear_1_10" x1="265.475" y1="252.826" x2="256.335" y2="178.913" gradientUnits="userSpaceOnUse">
<stop stop-color="#FF9C00"/>
<stop offset="1" stop-color="#FFCA00"/>
</linearGradient>
<linearGradient id="paint25_linear_1_10" x1="253.309" y1="145.081" x2="251.946" y2="176.75" gradientUnits="userSpaceOnUse">
<stop stop-color="#FFCBCA"/>
<stop offset="1" stop-color="#E994A8"/>
</linearGradient>
<linearGradient id="paint26_linear_1_10" x1="246.241" y1="178.476" x2="244.622" y2="195.045" gradientUnits="userSpaceOnUse">
<stop stop-color="#FF9C00"/>
<stop offset="1" stop-color="#FFCA00"/>
</linearGradient>
<linearGradient id="paint27_linear_1_10" x1="258.344" y1="181.723" x2="261.304" y2="185.62" gradientUnits="userSpaceOnUse">
<stop stop-color="#FF9C00"/>
<stop offset="1" stop-color="#FFCA00"/>
</linearGradient>
<linearGradient id="paint28_linear_1_10" x1="248.36" y1="168.647" x2="255.832" y2="168.647" gradientUnits="userSpaceOnUse">
<stop stop-color="#FFCBCA"/>
<stop offset="1" stop-color="#E994A8"/>
</linearGradient>
<linearGradient id="paint29_linear_1_10" x1="354.215" y1="4.31471" x2="247.632" y2="297.655" gradientUnits="userSpaceOnUse">
<stop stop-color="#5FA3FA"/>
<stop offset="1" stop-color="#3768EE"/>
</linearGradient>
<linearGradient id="paint30_linear_1_10" x1="313.438" y1="187.325" x2="245.082" y2="216.8" gradientUnits="userSpaceOnUse">
<stop stop-color="#FFCBCA"/>
<stop offset="1" stop-color="#E994A8"/>
</linearGradient>
<linearGradient id="paint31_linear_1_10" x1="241.484" y1="257.948" x2="232.087" y2="181.906" gradientUnits="userSpaceOnUse">
<stop stop-color="#FF9C00"/>
<stop offset="1" stop-color="#FFCA00"/>
</linearGradient>
<linearGradient id="paint32_linear_1_10" x1="313.661" y1="145.783" x2="299.93" y2="202.199" gradientUnits="userSpaceOnUse">
<stop stop-color="#FFCBCA"/>
<stop offset="1" stop-color="#E994A8"/>
</linearGradient>
<linearGradient id="paint33_linear_1_10" x1="202.803" y1="429.108" x2="202.803" y2="393.115" gradientUnits="userSpaceOnUse">
<stop stop-color="#FF9C00"/>
<stop offset="1" stop-color="#FFCA00"/>
</linearGradient>
<linearGradient id="paint34_linear_1_10" x1="289.893" y1="429.108" x2="289.893" y2="398.929" gradientUnits="userSpaceOnUse">
<stop stop-color="#FF9C00"/>
<stop offset="1" stop-color="#FFCA00"/>
</linearGradient>
<linearGradient id="paint35_linear_1_10" x1="403.476" y1="427.032" x2="379.125" y2="363.997" gradientUnits="userSpaceOnUse">
<stop stop-color="#FFD2B6"/>
<stop offset="1" stop-color="#FFB793"/>
</linearGradient>
<linearGradient id="paint36_linear_1_10" x1="355.013" y1="416.212" x2="406.925" y2="416.212" gradientUnits="userSpaceOnUse">
<stop stop-color="#3F2DD1"/>
<stop offset="1" stop-color="#4B3FFA"/>
</linearGradient>
<linearGradient id="paint37_linear_1_10" x1="485.87" y1="413.264" x2="435.887" y2="367.433" gradientUnits="userSpaceOnUse">
<stop stop-color="#FFD2B6"/>
<stop offset="1" stop-color="#FFB793"/>
</linearGradient>
<linearGradient id="paint38_linear_1_10" x1="438.889" y1="412.123" x2="488.15" y2="412.123" gradientUnits="userSpaceOnUse">
<stop stop-color="#3F2DD1"/>
<stop offset="1" stop-color="#4B3FFA"/>
</linearGradient>
<linearGradient id="paint39_linear_1_10" x1="426.329" y1="248.641" x2="426.329" y2="382.093" gradientUnits="userSpaceOnUse">
<stop stop-color="#3F2DD1"/>
<stop offset="1" stop-color="#4B3FFA"/>
</linearGradient>
<linearGradient id="paint40_linear_1_10" x1="338.419" y1="214.554" x2="384.061" y2="214.554" gradientUnits="userSpaceOnUse">
<stop stop-color="#FFD2B6"/>
<stop offset="1" stop-color="#FFB793"/>
</linearGradient>
<linearGradient id="paint41_linear_1_10" x1="379.324" y1="256.426" x2="379.324" y2="172.491" gradientUnits="userSpaceOnUse">
<stop stop-color="#BE1E2B"/>
<stop offset="1" stop-color="#D3535C"/>
</linearGradient>
<linearGradient id="paint42_linear_1_10" x1="410.427" y1="256.053" x2="410.427" y2="172.438" gradientUnits="userSpaceOnUse">
<stop stop-color="#BE1E2B"/>
<stop offset="1" stop-color="#D3535C"/>
</linearGradient>
<linearGradient id="paint43_linear_1_10" x1="442.7" y1="303.249" x2="442.7" y2="201.403" gradientUnits="userSpaceOnUse">
<stop stop-color="#FFD2B6"/>
<stop offset="1" stop-color="#FFB793"/>
</linearGradient>
<linearGradient id="paint44_linear_1_10" x1="452.081" y1="264.91" x2="436.98" y2="169.934" gradientUnits="userSpaceOnUse">
<stop stop-color="#BE1E2B"/>
<stop offset="1" stop-color="#D3535C"/>
</linearGradient>
<linearGradient id="paint45_linear_1_10" x1="335.215" y1="206.535" x2="381.177" y2="206.535" gradientUnits="userSpaceOnUse">
<stop stop-color="#3F2DD1"/>
<stop offset="1" stop-color="#4B3FFA"/>
</linearGradient>
<linearGradient id="paint46_linear_1_10" x1="351.65" y1="197.931" x2="332.48" y2="197.931" gradientUnits="userSpaceOnUse">
<stop stop-color="#FFD2B6"/>
<stop offset="1" stop-color="#FFB793"/>
</linearGradient>
<linearGradient id="paint47_linear_1_10" x1="395.855" y1="157.274" x2="419.463" y2="157.274" gradientUnits="userSpaceOnUse">
<stop stop-color="#FFD2B6"/>
<stop offset="1" stop-color="#FFB793"/>
</linearGradient>
<linearGradient id="paint48_linear_1_10" x1="412.502" y1="161.065" x2="405.911" y2="166.056" gradientUnits="userSpaceOnUse">
<stop stop-color="#FFD2B6"/>
<stop offset="1" stop-color="#FFB793"/>
</linearGradient>
<linearGradient id="paint49_linear_1_10" x1="407.415" y1="175.27" x2="420.688" y2="175.27" gradientUnits="userSpaceOnUse">
<stop stop-color="#BE1E2B"/>
<stop offset="1" stop-color="#D3535C"/>
</linearGradient>
<linearGradient id="paint50_linear_1_10" x1="404.594" y1="178.145" x2="400.62" y2="168.595" gradientUnits="userSpaceOnUse">
<stop stop-color="#BE1E2B"/>
<stop offset="1" stop-color="#D3535C"/>
</linearGradient>
<linearGradient id="paint51_linear_1_10" x1="15.9023" y1="27.176" x2="15.9023" y2="461.577" gradientUnits="userSpaceOnUse">
<stop stop-color="#8AB9FD" stop-opacity="0.3"/>
<stop offset="1" stop-color="#0056E9"/>
</linearGradient>
<linearGradient id="paint52_linear_1_10" x1="99.6931" y1="-15.5796" x2="99.6931" y2="418.821" gradientUnits="userSpaceOnUse">
<stop stop-color="#8AB9FD"/>
<stop offset="1" stop-color="#0056E9"/>
</linearGradient>
<linearGradient id="paint53_linear_1_10" x1="510.812" y1="-15.5793" x2="510.812" y2="418.821" gradientUnits="userSpaceOnUse">
<stop stop-color="#8AB9FD"/>
<stop offset="1" stop-color="#0056E9"/>
</linearGradient>
<linearGradient id="paint54_linear_1_10" x1="453.929" y1="-19.2213" x2="453.929" y2="165.665" gradientUnits="userSpaceOnUse">
<stop stop-color="#8AB9FD"/>
<stop offset="1" stop-color="#0056E9"/>
</linearGradient>
<linearGradient id="paint55_linear_1_10" x1="255.352" y1="-29.6572" x2="255.352" y2="404.754" gradientUnits="userSpaceOnUse">
<stop stop-color="#8AB9FD"/>
<stop offset="1" stop-color="#0056E9"/>
</linearGradient>
<linearGradient id="paint56_linear_1_10" x1="488.14" y1="93.3803" x2="488.14" y2="302.439" gradientUnits="userSpaceOnUse">
<stop stop-color="#8AB9FD"/>
<stop offset="1" stop-color="#0056E9"/>
</linearGradient>
<linearGradient id="paint57_linear_1_10" x1="62.3535" y1="-1.36307" x2="62.3535" y2="207.686" gradientUnits="userSpaceOnUse">
<stop stop-color="#8AB9FD"/>
<stop offset="1" stop-color="#0056E9"/>
</linearGradient>
<linearGradient id="paint58_linear_1_10" x1="511.835" y1="-15.5821" x2="511.836" y2="418.819" gradientUnits="userSpaceOnUse">
<stop stop-color="#8AB9FD"/>
<stop offset="1" stop-color="#0056E9"/>
</linearGradient>
<linearGradient id="paint59_linear_1_10" x1="56.0519" y1="343.736" x2="56.0519" y2="294.932" gradientUnits="userSpaceOnUse">
<stop stop-color="#53B0B1"/>
<stop offset="1" stop-color="#6ACAD8"/>
</linearGradient>
<linearGradient id="paint60_linear_1_10" x1="71.507" y1="373.681" x2="67.5333" y2="344.727" gradientUnits="userSpaceOnUse">
<stop stop-color="#53B0B1"/>
<stop offset="1" stop-color="#6ACAD8"/>
</linearGradient>
<linearGradient id="paint61_linear_1_10" x1="140.949" y1="218.132" x2="140.949" y2="650.595" gradientUnits="userSpaceOnUse">
<stop stop-color="#8AB9FD" stop-opacity="0.2"/>
<stop offset="1" stop-color="#0056E9"/>
</linearGradient>
<clipPath id="clip0_1_10">
<rect width="583" height="438" fill="white"/>
</clipPath>
</defs>
</svg>
