<?xml version="1.0" encoding="UTF-8"?>
<svg xmlns="http://www.w3.org/2000/svg" xmlns:xlink="http://www.w3.org/1999/xlink" viewBox="0 0 209.56 402.62">
  <defs>
    <style>
      .cls-1 {
        fill: url(#linear-gradient-12);
      }

      .cls-1, .cls-2, .cls-3, .cls-4, .cls-5, .cls-6, .cls-7, .cls-8, .cls-9, .cls-10, .cls-11, .cls-12, .cls-13, .cls-14, .cls-15, .cls-16, .cls-17 {
        stroke-width: 0px;
      }

      .cls-18 {
        stroke-miterlimit: 10;
        stroke-width: 2px;
      }

      .cls-18, .cls-19, .cls-20, .cls-21 {
        fill: none;
        stroke: #000;
      }

      .cls-2 {
        fill: url(#linear-gradient);
      }

      .cls-3 {
        fill: #000;
      }

      .cls-19 {
        stroke-width: .75px;
      }

      .cls-19, .cls-20, .cls-21 {
        stroke-linecap: round;
        stroke-linejoin: round;
      }

      .cls-4 {
        fill: url(#linear-gradient-6);
      }

      .cls-22 {
        isolation: isolate;
      }

      .cls-5 {
        fill: url(#linear-gradient-15);
      }

      .cls-6 {
        fill: url(#linear-gradient-11);
      }

      .cls-7 {
        fill: url(#linear-gradient-5);
      }

      .cls-8 {
        fill: url(#linear-gradient-9);
        mix-blend-mode: multiply;
      }

      .cls-9 {
        fill: url(#linear-gradient-13);
      }

      .cls-10 {
        fill: url(#linear-gradient-14);
      }

      .cls-11 {
        fill: url(#linear-gradient-2);
      }

      .cls-12 {
        fill: url(#linear-gradient-7);
      }

      .cls-13 {
        fill: url(#linear-gradient-3);
      }

      .cls-20 {
        stroke-width: .37px;
      }

      .cls-14 {
        fill: url(#linear-gradient-8);
      }

      .cls-15 {
        fill: #fff;
      }

      .cls-21 {
        stroke-width: .5px;
      }

      .cls-16 {
        fill: url(#linear-gradient-10);
      }

      .cls-17 {
        fill: url(#linear-gradient-4);
      }
    </style>
    <linearGradient id="linear-gradient" x1="52.02" y1="354.73" x2="9.7" y2="376.37" gradientUnits="userSpaceOnUse">
      <stop offset="0" stop-color="#ffcbca"/>
      <stop offset="1" stop-color="#e994a8"/>
    </linearGradient>
    <linearGradient id="linear-gradient-2" x1="109.2" y1="363.47" x2="86.61" y2="380.13" xlink:href="#linear-gradient"/>
    <linearGradient id="linear-gradient-3" x1="77.18" y1="232.72" x2="64.74" y2="380.88" gradientUnits="userSpaceOnUse">
      <stop offset="0" stop-color="#3f2dd1"/>
      <stop offset="1" stop-color="#4b3ffa"/>
    </linearGradient>
    <linearGradient id="linear-gradient-4" x1="121.63" y1="135.58" x2="108.73" y2="188.56" xlink:href="#linear-gradient"/>
    <linearGradient id="linear-gradient-5" x1="81.78" y1="237.42" x2="73.2" y2="168.01" gradientUnits="userSpaceOnUse">
      <stop offset="0" stop-color="#ff9c00"/>
      <stop offset="1" stop-color="#ffca00"/>
    </linearGradient>
    <linearGradient id="linear-gradient-6" x1="70.35" y1="136.24" x2="69.07" y2="165.98" xlink:href="#linear-gradient"/>
    <linearGradient id="linear-gradient-7" x1="63.71" y1="167.6" x2="62.19" y2="183.16" xlink:href="#linear-gradient-5"/>
    <linearGradient id="linear-gradient-8" x1="75.08" y1="170.65" x2="77.86" y2="174.31" xlink:href="#linear-gradient-5"/>
    <linearGradient id="linear-gradient-9" x1="65.7" y1="158.37" x2="72.72" y2="158.37" xlink:href="#linear-gradient"/>
    <linearGradient id="linear-gradient-10" x1="67.53" y1="413.71" x2="67.53" y2="706.81" gradientTransform="translate(242.91 -407.86) rotate(19.96)" gradientUnits="userSpaceOnUse">
      <stop offset="0" stop-color="#5fa3fa"/>
      <stop offset="1" stop-color="#3768ee"/>
    </linearGradient>
    <linearGradient id="linear-gradient-11" x1="126.84" y1="175.91" x2="62.63" y2="203.61" xlink:href="#linear-gradient"/>
    <linearGradient id="linear-gradient-12" x1="59.25" y1="242.23" x2="50.42" y2="170.82" xlink:href="#linear-gradient-5"/>
    <linearGradient id="linear-gradient-13" x1="127.06" y1="136.9" x2="114.16" y2="189.88" xlink:href="#linear-gradient"/>
    <linearGradient id="linear-gradient-14" x1="22.9" y1="402.96" x2="22.9" y2="369.16" xlink:href="#linear-gradient-5"/>
    <linearGradient id="linear-gradient-15" x1="104.72" y1="402.96" x2="104.72" y2="374.62" xlink:href="#linear-gradient-5"/>
  </defs>
  <g class="cls-22">
    <g id="OBJECTS">
      <g>
        <polygon class="cls-2" points="10.73 374.69 17.82 358.98 34.25 366.71 25.76 381.39 10.73 374.69"/>
        <polygon class="cls-11" points="86.19 383.87 86.19 363.52 104.72 368.85 103.96 384.26 86.19 383.87"/>
        <path class="cls-13" d="M98.39,223.77l19.51,75.03-1.19,76.41c-5.87,1.91-22.5,2.48-31.49-.33l1.31-73.72-9.94-32.15-1.41,1.15-4.18,38.25-29.76,67.05c-7.2-1.61-18.29-4.98-26.65-10.67l25.84-61.41s2.83-17.07,4.69-34.87c-.02-5.57-.21-10.64.73-17.05,1.73-11.76,4.66-17.01,4.66-17.01l47.86-10.67Z"/>
        <path class="cls-17" d="M103.51,171.77l7.27,3.67,11.3-25.26,7.28,2.51s-7.02,37.63-12.06,39.41c-4.74,1.68-20.78-4.21-20.78-4.21l6.99-16.12Z"/>
        <path class="cls-7" d="M49.17,170.93l-6.09,12.83c0,14.56,3.56,31.49,6.63,52.45,0,0,31.61,7.49,49.96-7.72l-7.71-40.79,5.22,2.97,9.57-17.71c-5.42-3.47-17.95-11.3-24.27-9.8l-33.32,7.78Z"/>
        <path class="cls-4" d="M59.95,152.14c-6.49-10.14-3.38-23.26,8.63-24.17,9.77-.74,12.22,5.59,13.58,11.22,0,0,2.1,8.88.55,15.27-.83,3.44-4.09,6.91-10.64,4.71l2.33,11.46c-3.32,1.99-13.85,1.37-15.92-1.78l2.2-15.71c-.25-.33-.51-.64-.73-.99Z"/>
        <path class="cls-15" d="M70.61,176.86s-.23,20-11.74,47.6l5.57,9.38,8.28-6.8s8.36-22.72,1.51-50.81"/>
        <path class="cls-15" d="M70.15,168.68l-3.08,5.76c.53.89,2.07,2.1,3.54,2.43l3.61-.62c.49-.59.9-1.92.91-2.67l-2.86-5.2-2.12.3Z"/>
        <path class="cls-12" d="M56.91,170.27l1.96-4.16c1.86.94,8.2,2.54,11.28,2.56l-3.08,7.31s-7.04-1.74-10.16-5.71Z"/>
        <path class="cls-14" d="M73.07,164.07s.21,2.69-.8,4.3l3.01,6.95s1.89-4.39.19-8.57l-2.4-2.68Z"/>
        <path class="cls-3" d="M74.94,138.32c-5.24-.76-7.52-3.59-7.52-3.59,0,0,2.33,2.97,1.56,6.77-.4,1.95-1.42,2.79-1.42,2.79,0,0-2.7-3.67-5.01-2.14-3.46,2.29.65,8.29.65,8.29l-3.16,7.35s-19.53-14.62-5.74-24.96c0,0-1.35-5.73,4.53-9.13,5.88-3.4,13.43.36,17.94,1.85,5.7,1.89,9.83-.89,10.66,2.68.52,2.25-.45,11.82-12.48,10.08Z"/>
        <path class="cls-8" d="M72.08,159.17s-4.79-2.37-6.37-4.76c0,0-.23,5.07,7.01,7.91l-.64-3.15Z"/>
        <polygon class="cls-3" points="75.18 270.15 76.55 259.25 84.07 254.39 77.89 259.4 76.59 269.01 75.18 270.15"/>
        <path class="cls-18" d="M66.6,240.47s-1.02,14.81-16.49,14.32"/>
        <path class="cls-3" d="M45.93,194.64l-1.53,2.67s5.49,7.84,7.98,11c0,0,4.44-2.55,6.93-4.95,1.78-1.72-13.37-8.73-13.37-8.73Z"/>
        <path class="cls-16" d="M205.49,90.41c13.08-36.01-6.44-75.92-43.46-87.41-33.13-10.29-69.09,6.68-82.24,38.77-12.66,30.9-.76,65.25,25.97,82.35.93.59,1.34,1.74.96,2.77h0c-.46,1.25-.55,2.55-.33,3.77.64,3.59.09,7.29-1.15,10.72l-45.8,126.07c-1.78,4.89.75,10.29,5.63,12.06h0c4.89,1.78,10.29-.75,12.06-5.63l45.8-126.07c1.25-3.43,3.2-6.62,6-8.96.95-.8,1.71-1.85,2.17-3.1h0c.38-1.04,1.42-1.65,2.52-1.51,30.59,3.93,60.9-13.63,71.87-43.83ZM124.7,115.36c-26.49-9.62-40.16-38.9-30.54-65.39,9.62-26.49,38.9-40.16,65.39-30.54s40.16,38.9,30.54,65.39c-9.62,26.49-38.9,40.16-65.39,30.54Z"/>
        <circle class="cls-19" cx="142.13" cy="67.4" r="48.25"/>
        <g>
          <path class="cls-6" d="M114,181.43c-.77-1.32-2.33-2.61-2.33-2.61l-.93,2.55c-.51-.03-1.75-.27-2.43-.68,0,0,2.25-2.34,2.75-3.18,1.26-2.08.14-3.98-.56-3.95-.7.03-6.11,4.94-6.11,4.94h0c-.92.82-1.69,2.05-2.26,2.88-1.14,1.63-2.38,2.23-2.38,2.23-5.51,3-27.45,14.08-27.45,14.08l-9.16-9.01-11.24,11.43s14.38,12.58,22.36,13.16c8.59-3.92,22.4-15.29,28.36-20.26,0,0,6.23,1.13,7.69-.16.45-.39.73-1.12.88-1.59,1.16-.87,1.21-1.27,1.33-1.63.19-.55.02-1.71.02-1.71,0,0,1.07-.96,1.15-1.82.05-.53-.41-1.78-.41-1.78,0,0,.87-.75.99-1.11.16-.5.07-1.17-.29-1.79Z"/>
          <path class="cls-1" d="M51.97,205.04c2.3-1.49,12.88-9.64,15.1-13.37l-17.9-20.74s-10.33,2.51-11.11,12.12c-.79,9.72,13.91,21.99,13.91,21.99Z"/>
        </g>
        <path class="cls-9" d="M133.71,140.21c.08-1.01-.81-2.56-.81-2.56,0,0-4.45-6.58-4.86-7.24-.41-.66-1.54-.57-1.83.73,0,0-.01-.02-.02-.03-.65-1.28-2.59-1.27-2.29.9-.97-1.3-2.59-.64-2.17,1.93-.64-.56-2.02-.09-1.69,2.22.22,1.53,1.86,5.13,2.79,7.09-.13.3-.24.6-.3.88-.64,2.87-.45,6.05-.45,6.05l7.28,2.51s2.27-5.44,3.18-8.46h0s1.1-3.02,1.18-4.02Z"/>
        <g>
          <path class="cls-20" d="M126.42,131.53s3.64,5.27,4.28,6.35c.64,1.09.73,2.17.73,2.17"/>
          <path class="cls-20" d="M124.06,132.42s3.45,4.95,3.99,5.97c.54,1.02.8,2.49.8,2.49"/>
          <path class="cls-20" d="M122.08,134.34s2.39,3.64,3,4.6c.61.96.99,2.68.99,2.68"/>
        </g>
        <g>
          <path class="cls-10" d="M10.73,374.69l15.03,6.7,4.61,6.92s16.43-.98,15.37,14.31h-23.14L0,390.29s2.9-7.34,4.5-10.34c1.99-3.75,5.03-4.53,6.22-5.27Z"/>
          <path class="cls-3" d="M45.98,402.61h-23.38L0,390.29c-.06-1.08.33-2.42,1.38-3.38l22.87,12.67h21.46c.57.44.79,2.1.28,3.03Z"/>
          <g>
            <path class="cls-21" d="M26.51,382.51s2.51-5.69,5.19-4.82c2.44.79.15,6.26-6.26,6.7,0,0,3.84-5.15,9.57-3.52,3.85,1.09,2.03,6.98-7.47,3.19"/>
            <path class="cls-21" d="M25.44,384.39s4.18,3.22,4.53,10.02"/>
            <path class="cls-21" d="M25.44,384.39s2.59,3.7.32,10.02"/>
          </g>
        </g>
        <g>
          <path class="cls-5" d="M86.19,383.87l17.77.39,6.89,7.34s16.91-2.28,16.91,11.01h-46.09s.32-11.14,1.56-14.3c.59-1.51,1.76-3.7,2.95-4.44Z"/>
          <path class="cls-3" d="M127.77,402.61h-46.09s-.84-1.91.13-3.03h45.61c.62.62.62,1.74.35,3.03Z"/>
          <g>
            <path class="cls-21" d="M104.97,387.11s-.86-6.7,1.8-7.67c2.41-.88,3.97,4.84-.81,9.14,0,0-.15-6.42,5.37-8.66,3.71-1.51,5.9,4.25-3.92,7.11"/>
            <path class="cls-21" d="M105.96,388.58s5.28-.03,9.74,5.11"/>
            <path class="cls-21" d="M105.96,388.58s4.32,1.33,6.42,7.7"/>
          </g>
        </g>
      </g>
    </g>
  </g>
</svg>